<?xml version="1.0" encoding="UTF-8" standalone="no"?>
<!-- Created with Inkscape (http://www.inkscape.org/) -->

<svg
   width="210mm"
   height="297mm"
   viewBox="0 0 210 297"
   version="1.1"
   id="svg1"
   inkscape:version="1.3.2 (091e20e, 2023-11-25, custom)"
   sodipodi:docname="logo_final.svg"
   xmlns:inkscape="http://www.inkscape.org/namespaces/inkscape"
   xmlns:sodipodi="http://sodipodi.sourceforge.net/DTD/sodipodi-0.dtd"
   xmlns="http://www.w3.org/2000/svg"
   xmlns:svg="http://www.w3.org/2000/svg"
   xmlns:rdf="http://www.w3.org/1999/02/22-rdf-syntax-ns#"
   xmlns:cc="http://creativecommons.org/ns#"
   xmlns:dc="http://purl.org/dc/elements/1.1/">
  <title
     id="title1">adnyalu</title>
  <sodipodi:namedview
     id="namedview1"
     pagecolor="#ffffff"
     bordercolor="#ffffff"
     borderopacity="1"
     inkscape:showpageshadow="0"
     inkscape:pageopacity="0"
     inkscape:pagecheckerboard="1"
     inkscape:deskcolor="#d1d1d1"
     inkscape:document-units="mm"
     inkscape:zoom="0.6627946"
     inkscape:cx="150.8763"
     inkscape:cy="528.06707"
     inkscape:window-width="1920"
     inkscape:window-height="974"
     inkscape:window-x="-11"
     inkscape:window-y="-11"
     inkscape:window-maximized="1"
     inkscape:current-layer="layer1" />
  <defs
     id="defs1">
    <inkscape:path-effect
       effect="powerstroke"
       id="path-effect11"
       is_visible="true"
       lpeversion="1.3"
       scale_width="1"
       interpolator_type="CubicBezierJohan"
       interpolator_beta="0.2"
       start_linecap_type="zerowidth"
       end_linecap_type="zerowidth"
       offset_points="0,1.1884837"
       linejoin_type="extrp_arc"
       miter_limit="4"
       not_jump="false"
       sort_points="true"
       message="&lt;b&gt;Ctrl + click&lt;/b&gt; on existing node and move it" />
    <rect
       x="350.41021"
       y="349.27864"
       width="365.12065"
       height="185.57785"
       id="rect6" />
    <inkscape:path-effect
       effect="powerstroke"
       id="path-effect1"
       is_visible="true"
       lpeversion="1.3"
       scale_width="1"
       interpolator_type="CubicBezierJohan"
       interpolator_beta="0.2"
       start_linecap_type="zerowidth"
       end_linecap_type="zerowidth"
       offset_points="0.0084747751,1.1884837"
       linejoin_type="extrp_arc"
       miter_limit="4"
       not_jump="false"
       sort_points="true"
       message="&lt;b&gt;Ctrl + click&lt;/b&gt; on existing node and move it" />
  </defs>
  <g
     inkscape:label="Vrstva 1"
     inkscape:groupmode="layer"
     id="layer1">
    <g
       id="g1"
       transform="matrix(2.7973864,0,0,2.7183351,-1.9117189,32.332504)">
      <path
         style="fill:none;fill-opacity:1;stroke:#ffffff;stroke-width:1.31794;stroke-linecap:butt;stroke-linejoin:miter;stroke-dasharray:none;stroke-opacity:1"
         d="m 33.832292,76.255217 c -1.54213,-1.2965 -2.504076,-2.80542 -3.870788,-4.43167 -1.57269,-1.87135 -3.812575,-3.15708 -5.448189,-4.97292 -5.705426,-6.33396 -12.32739,-17.10905 -15.6360363,-26.09707 -1.83282,-4.97903 -5.496233,-8.418024 -6.019256,-14.47994 -0.264246,-3.061922 0.82885,-7.81306 1.476969,-10.728695 0.520189,-2.339817 1.654206,-6.6320262 3.122707,-8.3639172 6.3427673,-7.48027503 20.4585353,-3.731607 28.5249363,6.1239092 1.469567,1.795582 2.147457,4.897739 3.009597,7.239951 1.12602,3.058856 2.62148,3.758093 1.891,7.476921 1.5337,-5.79745 0.6535,-10.231578 3.38853,-15.597498 1.54761,-3.0364042 6.63686,-4.5374462 9.04168,-5.1538312 5.65711,-1.449979 12.0999,-3.808326 15.82576,2.511977 0.72727,1.2337202 1.29285,2.0858342 1.85104,3.5298982 0.2485,0.642833 0.26141,0.599669 0.74014,2.573312 0.30112,1.241375 1.50889,4.559922 1.69868,6.759566 0.30702,3.558323 -0.60189,5.362033 -1.0069,8.970925 -1.47824,13.172352 -2.73011,16.863302 -8.20531,24.460852 -0.96501,1.33905 -1.87631,3.25161 -2.94955,4.38846 -1.49477,1.58339 -3.74277,3.38196 -6.35793,7.99894 -3.12126,5.51074 -8.68085,16.16694 -14.09181,13.66346 -1.24279,-0.57497 -5.618685,-5.07269 -6.98527,-5.87263 z"
         id="path6"
         sodipodi:nodetypes="csssssssscsssssssssssc" />
      <path
         style="fill:none;stroke:#ffffff;stroke-width:1.165;stroke-linecap:butt;stroke-linejoin:miter;stroke-dasharray:none;stroke-opacity:1"
         d="m 16.145911,50.780667 c 9.861987,-0.4154 19.761545,-0.2117 29.638611,-0.2117 2.80963,0 5.66898,0.16964 8.46817,0 3.35179,-0.20314 6.6091,-0.49398 9.95011,-0.49398"
         id="path12" />
      <g
         id="g8"
         transform="matrix(0.86306463,0.01475665,-0.01133599,1.1234974,-15.31951,-151.45793)">
        <g
           id="g29"
           style="stroke-width:1.1;stroke-dasharray:none"
           transform="translate(-45.728139,64.640395)">
          <path
             style="fill:none;stroke:#ffffff;stroke-width:1.1;stroke-linecap:butt;stroke-linejoin:miter;stroke-dasharray:none;stroke-opacity:1"
             d="m 82.899122,111.18133 c 0.06925,-0.23527 -0.08789,-0.58029 0,-0.80709 0.59864,-1.54466 1.575816,-2.89204 2.189612,-4.47578 0.677933,-1.74922 1.147029,-3.65049 1.990557,-5.28287 0.26967,-0.52186 0.86603,-2.201199 0.928929,-2.201199 0.519471,0 0.515192,1.781099 0.663522,2.054449 0.389198,0.7173 0.151428,-0.0959 0.199059,0.21998 0.100021,0.66363 0.05545,1.59006 0.331759,2.2012 0.04194,0.0929 0.16938,0.12175 0.199059,0.21997 0.240414,0.79751 0.167545,1.77558 0.265412,2.64142 0.06122,0.54121 0.681141,2.1863 0.862576,2.7882 0.06883,0.22851 -0.01356,0.58594 0.06635,0.80709 0.246875,0.68252 0.433627,1.39929 0.729875,2.05446"
             id="path21" />
          <path
             style="fill:none;stroke:#ffffff;stroke-width:1.1;stroke-linecap:butt;stroke-linejoin:miter;stroke-dasharray:none;stroke-opacity:1"
             d="m 85.486849,105.45824 c 1.336463,-0.12734 2.698992,-0.0735 4.047466,-0.0735"
             id="path22" />
          <path
             style="fill:none;stroke:#ffffff;stroke-width:1.1;stroke-linecap:butt;stroke-linejoin:miter;stroke-dasharray:none;stroke-opacity:1"
             d="m 93.746688,111.02202 c 0,-0.75742 -0.13379,-1.40008 -0.26541,-2.12783 -0.10082,-0.55753 0,-1.27286 0,-1.83433 0,-2.34545 0.32282,-5.34107 -0.1327,-7.557449 -0.0683,-0.33219 -0.22119,-0.6359 -0.33176,-0.95386 -0.0221,-0.12205 -0.0443,-0.24439 -0.0664,-0.36685 2.37171,0.006 5.122,0.2288 6.17073,2.934919 0.17646,0.45531 0.12763,0.93702 0.26542,1.39409 0.341268,1.13217 0.487678,2.95329 0.265408,4.18228 -0.360598,1.99378 -4.259648,4.32897 -5.905318,4.32903 z"
             id="path23" />
          <path
             style="fill:none;stroke:#ffffff;stroke-width:1.1;stroke-linecap:butt;stroke-linejoin:miter;stroke-dasharray:none;stroke-opacity:1"
             d="m 102.10703,97.668081 c 0.0221,0.561 -0.0317,1.12723 0,1.68759 0.067,1.185009 0.41978,2.514159 0.53081,3.742029 0.25557,2.82608 0,5.80873 0,8.65804"
             id="path24" />
          <path
             style="fill:none;stroke:#ffffff;stroke-width:1.1;stroke-linecap:butt;stroke-linejoin:miter;stroke-dasharray:none;stroke-opacity:1"
             d="m 102.04067,97.888211 c 0.11058,0.31793 0.2043,0.64372 0.33176,0.95384 0.40617,0.98812 0.95825,1.899199 1.39339,2.861569 0.38064,0.84182 0.55939,1.84306 0.86258,2.71479 0.75083,2.15874 1.84152,4.82457 3.31759,6.45686 0.0455,-0.36758 0.12792,-0.79932 0.0665,-1.17399 -0.34656,-2.10768 -0.75632,-4.26962 -0.99527,-6.38345 -0.21169,-1.87345 0,-3.902409 0,-5.796489"
             id="path25" />
          <path
             style="fill:none;stroke:#ffffff;stroke-width:1.1;stroke-linecap:butt;stroke-linejoin:miter;stroke-dasharray:none;stroke-opacity:1"
             d="m 109.40573,97.814831 c -0.49553,1.22055 3.38395,5.120209 3.38395,6.163339"
             id="path26" />
          <path
             style="fill:none;stroke:#ffffff;stroke-width:1.1;stroke-linecap:butt;stroke-linejoin:miter;stroke-dasharray:none;stroke-opacity:1"
             d="m 110.86547,111.46224 c -0.35674,-3.1359 1.58218,-6.36073 2.7868,-9.02491 0.43976,-0.97263 0.5559,-2.13774 0.86256,-3.155039 0.0652,-0.21615 0.28171,-0.29232 0.33176,-0.51362 0.12048,-0.53344 0.26542,-1.12794 0.26542,-1.68758"
             id="path27" />
          <path
             style="fill:none;stroke:#ffffff;stroke-width:1.1;stroke-linecap:butt;stroke-linejoin:miter;stroke-dasharray:none;stroke-opacity:1"
             d="m 115.24471,111.75574 c -0.18669,-1.60918 0.52123,-3.08138 0.99527,-4.54913 0.61821,-1.9142 0.96479,-3.96113 1.59245,-5.86986 0.39771,-1.20943 0.89811,-2.250909 1.12797,-3.521919 0.8248,1.78975 1.35756,3.741769 2.12327,5.576369 0.16728,0.40099 0.246,0.95837 0.46447,1.32071 0.42679,0.70795 1.02112,1.74096 1.12797,2.56807 0.0553,0.42843 0.59059,3.55497 0.79624,3.66867"
             id="path28" />
          <path
             style="fill:none;stroke:#ffffff;stroke-width:1.1;stroke-linecap:butt;stroke-linejoin:miter;stroke-dasharray:none;stroke-opacity:1"
             d="m 116.90351,105.5924 c 1.41565,-0.53876 3.00623,-0.51362 4.57828,-0.51362"
             id="path29" />
        </g>
        <path
           style="fill:none;stroke:#ffffff;stroke-width:1.06909;stroke-linecap:butt;stroke-linejoin:miter;stroke-dasharray:none;stroke-opacity:1"
           d="m 81.121926,161.41685 c -0.536214,4.7707 -1.262974,6.07255 -1.012584,13.77686 1.508156,0.6117 3.703287,0.33116 5.270074,-0.12135 0.651028,-0.18803 1.586951,-0.0805 2.270513,-0.11513"
           id="path1"
           sodipodi:nodetypes="ccsc" />
        <path
           style="fill:none;stroke:#ffffff;stroke-width:1.13914;stroke-linecap:butt;stroke-linejoin:miter;stroke-dasharray:none;stroke-opacity:1"
           d="m 88.602359,161.5579 c 0.25378,5.28459 -0.17718,4.54611 0.08334,6.92279 0.110175,1.00511 0.04789,2.32437 0.506017,3.24722 0.202626,0.40816 0.199106,0.92067 0.401151,1.32768 1.04952,2.11413 2.658312,3.05196 5.47406,1.45746 0.270313,-0.15307 0.06081,-0.0845 0.125705,-0.22308 0.04642,-0.0992 0.323984,-0.17959 0.381921,-0.2699 0.482705,-0.75253 0.508854,-1.64841 0.676672,-2.44737 0.07823,-0.3724 0.155462,-0.80681 0.371768,-1.11305 0.213036,-0.3016 0.04058,-2.84683 0.03425,-3.37263 -0.01418,-1.17922 0.04696,-2.47883 -0.247033,-3.6377 -0.194686,-0.76747 0.201489,-1.67258 -0.157223,-2.39516"
           id="path2"
           sodipodi:nodetypes="cssssscssssc" />
      </g>
    </g>
  </g>
  <metadata
     id="metadata1">
    <rdf:RDF>
      <cc:Work
         rdf:about="">
        <dc:title>adnyalu</dc:title>
      </cc:Work>
    </rdf:RDF>
  </metadata>
</svg>
